<svg xml:space="preserve" data-sanitized-enable-background="new 0 0 227.2 263.2" viewBox="0 0 227.2 263.2" height="263.2px" width="227.2px" y="0px" x="0px" xmlns:xlink="http://www.w3.org/1999/xlink" xmlns="http://www.w3.org/2000/svg" id="Layer_1" version="1.1">
<g>
	<path d="M18.7,183c0.7-1.9,1.3-2.8-0.7-3.9c-0.4-0.2-1-0.4-0.8-1c0.2-0.5,0.6-0.6,1-0.4c1.4,0.5,2.8,1.2,4.2,1.7
		c2.4,0.9,4.8,1.6,7.1,2.5c1.7,0.6,3.4,1.4,4.6,2.9c1.3,1.7,1.6,3.6,0.9,5.6c-0.6,1.6-1.9,2.9-3.3,3.7c-1.8,0.9-3.6,0.9-5.5,0.2
		c-1-0.4-1.6-0.8-2.4-1.4c-0.3-0.3-1.3-1-1.6-1.1c-0.6-0.2-0.6,0.3-0.7,0.7l-1.5,4.1c-0.7,1.9-1.1,2.7,0.8,3.8
		c0.4,0.2,1,0.5,0.8,1.1c-0.2,0.5-0.6,0.5-1,0.3c-1.7-0.6-3.3-1.4-5-2c-1.6-0.6-3.2-1-4.8-1.6c-0.5-0.2-0.7-0.4-0.6-0.9
		c0.2-0.5,0.7-0.5,1.2-0.4c2.3,0.4,2.4-0.2,3.2-2.3L18.7,183z M22.7,189.1c-0.1,0.4-0.4,1-0.2,1.3c0.3,0.5,1.1,0.9,1.6,1.1
		c2.6,1,4.5-0.8,5.4-3.2c0.8-2.2,0.1-4.9-2.3-5.8c-0.8-0.3-1.6-0.3-2.1,0.4c-0.6,0.8-0.8,1.9-1.2,2.8L22.7,189.1z" fill="#FFFFFF"></path>
	<path d="M41,203.3c-0.5,2-0.9,2.8,1.1,3.7c0.4,0.2,1,0.5,0.9,1.1c-0.1,0.5-0.5,0.5-1,0.4c-1.8-0.5-3.4-1.1-5.2-1.5
		c-1.6-0.4-3.3-0.7-4.9-1.2c-0.5-0.1-0.8-0.4-0.6-0.9c0.1-0.5,0.7-0.6,1.1-0.5c2.3,0.2,2.4-0.4,3-2.6l3.2-12c0.6-2.1,1-2.9-1.1-3.8
		c-0.4-0.2-1.1-0.4-0.9-1c0.1-0.5,0.5-0.6,1-0.4c1.8,0.5,3.4,1.1,5.2,1.5c1.6,0.4,3.3,0.7,4.9,1.2c0.5,0.1,0.8,0.3,0.7,0.9
		c-0.1,0.5-0.7,0.5-1.1,0.4c-2.4-0.2-2.4,0.5-3,2.7L41,203.3z" fill="#FFFFFF"></path>
	<path d="M68.1,196.5c0.1-0.7,0.3-1.8,0.2-2.5c-0.2-0.9-0.9-1.3-1.6-1.5c-0.6-0.2-1.3-0.1-1.2-0.9
		c0.1-0.7,0.9-0.6,1.4-0.5c1,0.2,2,0.4,3.1,0.6c1,0.2,2,0.3,3,0.5c0.5,0.1,0.9,0.3,0.8,0.9c-0.1,0.8-1.3,0.4-1.9,0.3
		c-1.7-0.1-1.7,1.6-2,2.9l-3,16.3c-0.2,1-0.1,1.6-1.3,1.4c-0.9-0.2-1.2-1-1.5-1.7L53.6,193l-2.1,11.4c-0.1,0.8-0.5,2.6-0.4,3.4
		c0.2,1.1,0.8,1.4,1.8,1.7c0.5,0.1,1.5,0.2,1.3,1c-0.1,0.6-0.7,0.6-1.2,0.5c-1.1-0.2-2.1-0.5-3.2-0.7c-1.1-0.2-2.2-0.3-3.3-0.5
		c-0.5-0.1-0.9-0.3-0.8-0.9c0.1-0.8,1-0.5,1.5-0.5c0.8,0.1,1.2-0.1,1.6-0.8c0.6-1,0.8-2.8,1-4l1.9-10.7c0.2-1.3,0.7-2.9-1-3.3
		c-0.5-0.1-1.3-0.2-1.2-1c0.1-0.6,0.8-0.5,1.3-0.4l6.1,1.1c1.4,0.2,1.3,0.3,1.9,1.5l7.6,14L68.1,196.5z" fill="#FFFFFF"></path>
	<path d="M83.6,201.2c-0.1,1-0.2,1.6,1,1.7c0.7,0.1,2.3,0.2,2.9,0.1c1-0.1,1.5-0.8,1.8-1.7c0.2-0.4,0.5-1.1,1.1-1.1
		c0.6,0.1,0.7,0.5,0.6,1c-0.2,1-0.3,2-0.4,3s-0.1,2-0.1,3c0,0.5-0.2,1-0.8,0.9c-1.7-0.2-0.1-3.4-3.8-3.7l-1.5-0.1
		c-1.2,0-1.1,0.5-1.2,1.4l-0.4,4.1c-0.1,0.9-0.2,2.2,0.3,2.9c0.5,0.8,1.6,1.2,2.6,1.3c2.4,0.2,4.6-0.6,5.9-2.6
		c0.3-0.5,0.7-1.2,1.3-1.1c0.6,0.1,0.7,0.3,0.7,0.9c0,0.3-0.3,1.2-0.4,1.5l-0.6,2.8c-0.1,0.4-0.2,0.6-0.6,0.6
		c-2.6-0.2-5.1-0.6-7.7-0.9c-3.3-0.3-6.7-0.5-10.1-0.8c-0.5,0-0.8-0.2-0.8-0.7c0.1-0.6,0.6-0.7,1-0.7c2.4-0.2,2.4-0.9,2.6-3
		l1.2-12.4c0.2-2.1,0.4-3.1-1.8-3.7c-0.4-0.1-1.1-0.3-1.1-0.6c0.1-0.6,0.4-0.8,0.9-0.8c2.1,0.2,4.1,0.5,6.2,0.7
		c3.6,0.3,7.3,0.5,10.9,0.9c0.8,0.1,0.5,0.6,0.5,1.3l-0.3,2.8c0,0.5,0,1.1-0.8,1c-0.5,0-0.8-0.6-1-1c-0.4-0.7-0.9-1.4-1.4-2
		c-0.7-0.7-1.7-0.9-2.7-1c-0.6-0.1-2.5-0.2-3.1,0c-0.4,0.2-0.5,1.1-0.5,1.6L83.6,201.2z" fill="#FFFFFF"></path>
	<path d="M112.3,204.2c1.2,0,1.2,0.1,1.2-1.2l0.1-3.4c0-2.1,0.3-3-2-3.5c-0.4-0.1-1.1-0.1-1.1-0.7
		c0-0.6,0.4-0.7,0.9-0.7c1.8,0,3.6,0.2,5.4,0.2c1.7,0,3.4-0.1,5-0.1c0.5,0,0.9,0.1,0.9,0.7c0,0.6-0.6,0.6-1,0.7
		c-2.4,0.3-2.2,1-2.3,3.4l-0.2,12.4c0,2.1-0.2,2.9,2,3.3c0.5,0.1,1.1,0.2,1.1,0.8c0,0.5-0.4,0.7-0.9,0.7c-1.8,0-3.6-0.2-5.4-0.2
		c-1.7,0-3.4,0.1-5,0.1c-0.5,0-0.8-0.2-0.8-0.7c0-0.6,0.5-0.7,1-0.8c2.3-0.3,2.2-0.9,2.3-3.2l0.1-5.4c0-0.9-0.1-0.8-1-0.9l-6.2-0.1
		c-1.5,0-1.4-0.2-1.4,1.3l-0.1,4.9c0,2.1-0.2,2.9,2,3.3c0.5,0.1,1.1,0.2,1.1,0.8c0,0.5-0.4,0.7-0.9,0.7c-1.8,0-3.6-0.2-5.4-0.2
		c-1.7,0-3.4,0.1-5,0.1c-0.5,0-0.8-0.2-0.8-0.7c0-0.6,0.5-0.7,1-0.8c2.3-0.3,2.2-0.9,2.3-3.2l0.2-12.4c0-2.1,0.3-3-2-3.5
		c-0.4-0.1-1.1-0.1-1.1-0.7c0-0.6,0.4-0.7,0.9-0.7c1.8,0,3.6,0.2,5.4,0.2c1.7,0,3.4-0.1,5-0.1c0.5,0,0.9,0.1,0.9,0.7
		c0,0.6-0.6,0.6-1,0.7c-2.4,0.3-2.2,1-2.3,3.4l-0.1,3.4c0,1.3,0,1.3,1.2,1.3L112.3,204.2z" fill="#FFFFFF"></path>
	<path d="M146.7,207.4c0.2,2.4,0.3,4.5-1.6,6.4c-1.8,1.7-4.3,2.3-6.8,2.5c-2.3,0.2-5.1,0-7.1-1.1
		c-2.6-1.4-3.1-3.5-3.3-6.2l-0.6-9.5c-0.1-2.1,0-3.1-2.3-3.3c-0.4,0-1.1,0-1.2-0.6c0-0.6,0.3-0.7,0.8-0.7c1.8-0.1,3.6-0.1,5.4-0.2
		c1.7-0.1,3.3-0.4,5-0.5c0.5,0,0.9,0,0.9,0.6s-0.5,0.7-0.9,0.8c-2.3,0.5-2.1,1.2-2,3.6l0.5,7.7c0.1,1.4,0.3,4.3,0.9,5.4
		c0.9,2,3.1,2.6,5.1,2.5c1.8-0.1,3.7-0.7,4.8-2.3c1.1-1.5,0.9-3.1,0.8-4.9l-0.6-8.9c-0.1-0.8-0.1-2.1-0.5-2.8s-1.1-0.8-1.9-0.9
		c-0.6,0-1.4,0.2-1.4-0.6c0-0.7,0.6-0.7,1.1-0.8c1-0.1,2.1-0.1,3.1-0.1c1-0.1,2.1-0.2,3.1-0.3c0.4,0,0.8,0.2,0.9,0.6
		c0,0.7-0.7,0.6-1.2,0.7c-0.8,0.2-1.3,0.3-1.5,1.2c-0.1,0.6-0.1,1.9,0,2.5L146.7,207.4z" fill="#FFFFFF"></path>
	<path d="M173.1,207.7c0.9,1.2,1.1,1.9,2.7,2c0.4,0,0.8,0.1,0.8,0.6c0.1,0.6-0.5,0.8-0.9,0.8c-1,0.2-1.9,0.2-2.9,0.4
		s-1.9,0.4-2.9,0.5c-0.8,0.1-0.9-0.3-1.3-0.9l-4.2-5.8c-0.5-0.6-1.4-1.9-2-2.3c-0.4-0.3-0.8-0.2-1.2-0.2c-0.7,0.1-0.4,0.5-0.3,1.2
		l0.7,4.6c0.3,2,0.3,2.9,2.5,2.9c0.5,0,1.1,0,1.2,0.6c0.1,0.5-0.3,0.7-0.7,0.8c-1.8,0.3-3.5,0.4-5.3,0.7c-1.7,0.3-3.3,0.7-5,0.9
		c-0.5,0.1-0.9,0-0.9-0.5c-0.1-0.6,0.4-0.8,0.8-0.9c2.2-0.7,2-1.3,1.7-3.6l-1.9-12.3c-0.3-2-0.3-3-2.4-3.1c-0.5,0-1.1,0.1-1.2-0.4
		c-0.1-0.6,0.3-0.8,0.8-0.9c1.6-0.2,3.2-0.4,4.8-0.6c2.7-0.4,5.3-1,8-1.4c1.5-0.2,3.1-0.3,4.5,0.4c1.5,0.8,2.4,2.2,2.7,3.9
		c0.5,3.3-2.2,5.3-5.1,6c2-0.1,3,1,4.1,2.5L173.1,207.7z M160.3,199.9c0.1,0.9,0,1.6,1,1.4c1-0.2,2.1-0.5,2.9-1.3
		c1-0.9,1.3-2.4,1.1-3.6c-0.3-2.2-2.1-4.1-4.5-3.7c-0.5,0.1-1.4,0.4-1.4,0.9c0,0.4,0.2,1.2,0.3,1.6L160.3,199.9z" fill="#FFFFFF"></path>
	<path d="M187.9,190.1c0.1,0.5,0.4,1.3-0.4,1.5c-0.6,0.1-0.9-0.3-1.1-0.7c-1.1-1.8-2.6-3.3-4.8-2.8
		c-1.8,0.4-3.6,2-3.1,4c0.4,1.8,2.3,2.1,3.8,2.2l1.9,0.2c3.7,0.3,6.8,1.4,7.7,5.3c0.5,2.1-0.1,4.4-1.4,6.1c-1.4,1.9-3.5,3-5.8,3.5
		c-1.6,0.4-4.4,0.6-6,0.2c-1.2-0.3-1.2-0.8-1.5-1.9l-0.4-1.9c-0.1-0.5-0.6-1.8,0.2-2s1.2,0.8,1.5,1.3c0.6,1,1,1.9,2,2.5
		c1.2,0.7,2.6,0.7,3.8,0.4c2.1-0.5,4.4-2.3,3.8-4.7c-0.7-2.8-3.8-2.9-6.1-3.2c-3-0.5-6.6-1.2-7.4-4.6c-1.1-4.5,3.3-8.1,7.2-9
		c1.2-0.3,3.5-0.5,4.6-0.2c0.7,0.2,0.8,0.8,0.9,1.4L187.9,190.1z" fill="#FFFFFF"></path>
	<path d="M207.2,197.5c0.7,2,0.8,2.8,3,2.4c0.5-0.1,1.1-0.2,1.3,0.4c0.2,0.5-0.1,0.8-0.6,0.9c-1.7,0.6-3.4,1-5.1,1.6
		c-1.6,0.5-3.1,1.2-4.7,1.8c-0.5,0.2-0.8,0.1-1-0.4s0.3-0.9,0.6-1.1c2.1-1.1,1.8-1.6,1-3.8l-4.8-14c-0.4-0.9-0.3-1-1.3-0.6
		c-2.3,0.8-2.8,2-3.5,4.2c-0.1,0.5-0.4,1.4-1,1.6c-0.4,0.1-0.7-0.1-0.8-0.5c-0.1-0.2-0.1-0.5-0.1-0.8l-0.3-4.2
		c0-0.5-0.1-1.2,0.5-1.4c0.4-0.1,0.6,0,0.8,0.3c0.6,0.8,0.8,0.6,1.7,0.3l11.9-4.1c1-0.4,1.9-0.5,2.2-1.7c0.1-0.4,0.2-0.8,0.6-0.9
		c0.8-0.3,0.8,0.4,1,1l1,4.4c0.1,0.6,0.4,1.4-0.3,1.6c-0.6,0.2-1-0.2-1.4-0.6c-1.8-2.1-2.4-2.5-5.2-1.6c-0.9,0.3-0.9,0.4-0.6,1.3
		L207.2,197.5z" fill="#FFFFFF"></path>
	<path d="M217.3,194.5c0.6,0.3,1.1,0.7,1.3,1.3c0.3,0.6,0.3,1.3,0,1.9c-0.3,0.6-0.7,1.1-1.3,1.3
		c-0.6,0.3-1.3,0.3-1.9,0c-0.6-0.3-1.1-0.7-1.3-1.3c-0.3-0.6-0.3-1.3,0-1.9c0.3-0.6,0.7-1.1,1.3-1.3
		C216.1,194.3,216.7,194.3,217.3,194.5z M217.5,194.2c-0.7-0.3-1.5-0.3-2.2,0s-1.2,0.8-1.5,1.6c-0.3,0.7-0.3,1.5,0,2.2
		s0.8,1.3,1.6,1.6c0.7,0.3,1.5,0.3,2.2,0s1.2-0.8,1.5-1.6c0.3-0.7,0.3-1.5,0-2.2C218.7,195,218.2,194.5,217.5,194.2z M216.7,196.5
		c-0.1,0.1-0.2,0.2-0.5,0.3l-0.5,0.2l-0.4-1.1l0.4-0.2c0.3-0.1,0.5-0.2,0.7-0.2s0.3,0.1,0.4,0.3
		C216.9,196.2,216.9,196.4,216.7,196.5z M215.9,198.7l0.5-0.2l-0.5-1.1l0.4-0.2c0.3-0.1,0.5-0.2,0.6-0.1c0.2,0,0.4,0.2,0.6,0.6
		l0.1,0.2v0.1l0,0l0,0l0.5-0.2l0,0l-0.1-0.1c0-0.1-0.1-0.1-0.1-0.2l-0.1-0.2c-0.1-0.1-0.2-0.3-0.3-0.4c-0.2-0.1-0.4-0.1-0.6-0.1
		c0.2-0.1,0.3-0.2,0.4-0.3c0.1-0.2,0.2-0.4,0-0.7c-0.2-0.4-0.4-0.5-0.8-0.5c-0.2,0-0.5,0.1-0.8,0.2l-1,0.4L215.9,198.7z" fill="#FFFFFF"></path>
	<path d="M72.1,244.4c0,0.7-0.1,2.3,0.3,2.9c0.4,0.6,1.4,0.6,2.1,0.6c0.6,0,1.8,0,1.8,0.8c0,0.7-0.8,0.8-1.3,0.8
		c-1,0-2-0.2-3-0.2c-1.3,0-2.6-0.1-3.8-0.1c-0.9,0-1.8,0.1-2.7,0.1c-0.9,0-1.7,0.1-2.5,0.1c-0.6,0-1.2,0-1.2-0.8
		c0-0.9,1.1-0.8,1.7-0.8c0.8,0,1.5,0,2.2-0.4c0.8-0.5,0.8-1.5,0.8-2.3v-12.9c0-0.5,0-1.3-0.1-1.8c0-0.4-0.3-0.6-0.7-0.6
		c-0.4,0-0.6,0.1-0.9,0.2l-1.5,0.5c-0.4,0.1-1.2,0.4-1.7,0.4c-0.4,0-0.8-0.2-0.8-0.6c0-1,1.7-1.2,2.3-1.4c2.6-0.6,5.3-1.3,7.6-2.5
		c0.2-0.1,0.4-0.2,0.6-0.2c0.7,0,0.6,1.1,0.6,1.5v16.7H72.1z" fill="#FFFFFF"></path>
	<path d="M87.9,244c0-1.5,0.4-2.7,1.6-3.6c0.7-0.6,1.9-1.2,2.8-1.5c0.1,0,0.5-0.2,0.5-0.4c0-0.1-0.4-0.3-0.5-0.4
		c-2.2-1-3.6-2.9-3.6-5.3c0-2,0.9-3.6,2.6-4.8c1.7-1.3,3.9-1.7,6-1.7c1.6,0,3.4,0.2,4.9,1c1.6,0.8,3,2.3,3,4.2c0,2.1-1.6,3.4-3.4,4
		c-0.1,0-0.8,0.2-0.8,0.4s0.7,0.5,0.9,0.6c2.5,1.1,4.4,3.4,4.4,6.2c0,2.2-1.5,4.2-3.2,5.4s-4.1,1.7-6.2,1.7
		C93.3,249.9,87.9,248.5,87.9,244z M101.3,244.9c0-2.3-1.8-3.5-3.7-4.4c-0.4-0.2-2.4-1.2-3-1.2c-0.4,0-0.9,0.6-1.1,0.9
		c-0.7,0.9-1,2.2-1,3.3c0,2.8,1.7,5,4.6,5C99.1,248.5,101.3,246.9,101.3,244.9z M100,234.7c0.6-0.8,0.9-1.6,0.9-2.6
		c0-2.4-1.4-4.5-4-4.5c-1.8,0-3.6,1.2-3.6,3.2c0,2.5,3.5,3.5,5.4,4.2c0.1,0,0.4,0.2,0.6,0.2C99.6,235.3,99.8,234.9,100,234.7z" fill="#FFFFFF"></path>
	<path d="M119.3,252.7c0-0.6,0.8-0.8,1.3-0.9c6.3-2.1,10.5-8.5,10.5-15.1c0-1.8-0.4-3.7-1.2-5.4
		c-0.7-1.5-1.9-3.5-3.7-3.5c-0.9,0-1.6,0.5-2.2,1.2c-0.7,0.9-0.9,2.2-0.9,3.3c0,1.7,0.4,3.6,1.3,5c0.6,1.1,1.8,2.4,3.2,2.4
		c0.6,0,1.1-0.3,1.4-0.3s0.4,0.3,0.4,0.5c0,1.3-3.5,1.7-4.3,1.7c-3.7,0-6.6-3.5-6.6-7c0-4.6,4-8.3,8.5-8.3c5.5,0,9.3,4.6,9.3,9.9
		c0,4.5-2.3,8.5-5.5,11.5c-1.7,1.5-3.5,2.7-5.5,3.7c-1,0.5-4.4,1.9-5.4,1.9C119.6,253.4,119.3,253.1,119.3,252.7z" fill="#FFFFFF"></path>
	<path d="M154.4,231.9c-1.2,0.1-2.1,0-2.1,1.4c0,0.6,0.5,0.7,1,0.7c2,0.1,6,0.5,7.7,1.3c2.6,1.2,4.7,3.5,4.7,6.5
		c0,3.7-2.5,6.7-5.6,8.4c-2.8,1.6-6.4,2.5-9.6,2.5c-0.5,0-1.3,0-1.3-0.7c0-0.6,1.3-0.7,1.8-0.8c3.7-0.4,9.6-2.4,9.6-6.9
		c0-2.2-1.5-3.8-3.4-4.6c-2-0.8-4.1-0.9-6.2-1c-0.4,0-1.4,0-1.4-0.6c0-0.3,0.2-0.8,0.3-1l2.3-8.6c0.3-1.1,0.6-1,1.7-1.1l10.1-1.2
		c0.3,0,0.4,0.2,0.4,0.4c0,0.3-0.2,0.9-0.3,1.2c-0.1,0.6-0.6,2.5-0.9,3c-0.3,0.4-1.2,0.4-1.7,0.5L154.4,231.9z" fill="#FFFFFF"></path>
	<g>
		<path d="M111.6,20.2c2,1.4,3.2-1.4,4.6-1.7c-0.5-1-1.6-1.5-2.7-1.6C111.7,16.9,112.5,19.2,111.6,20.2z" fill="#FFFFFF"></path>
		<path d="M117.4,22.1c1.4-1,1.9-2.4,2.8-3.6c-0.4-0.4-1.2-0.1-1.9-0.2c-1.7,0.5-1.5,2.5-1.2,3.8
			C117.1,22.1,117.4,22.1,117.4,22.1z" fill="#FFFFFF"></path>
		<path d="M154.3,109.4c-1.4,1.2-3,3.6-2.7,4.9c-1.3,4.6,1.7,6.7,2.7,5.9c-1.3-1.6-2.5-3.6-0.9-6.6
			c0.7-1.5,4-4.1,3.8-6.9L154.3,109.4z" fill="#FFFFFF"></path>
		<path d="M171.5,94c1.8-2.2-1.2-3.6-1-5.8c-0.4,3.4-1.4,6.4-2.8,9.6c1.4-1.4,1.8-3.2,2.8-4.8L171.5,94z" fill="#FFFFFF"></path>
		<path d="M149.5,120.3c-0.9,0.7-3.7,2.8-2.8,4.3c0.6,0,2.2-1.9,2.5-1.3c2.1-0.5,4,1.8,5.6,3.5l-1.1-2.6
			C153.7,122.5,151,121,149.5,120.3z" fill="#FFFFFF"></path>
		<path d="M164.4,130.2c-0.5-3.5,0.9-5-2.1-9.7c-0.5,0.1-1.6,0.9-1.9,0c-0.7,0.7,2.2,3.8,2.2,3.8
			C163.5,127.2,163.4,127.2,164.4,130.2z" fill="#FFFFFF"></path>
		<polygon points="123.7,168.2 123.9,177 124.3,177.7 124,167.7" fill="#FFFFFF"></polygon>
		<path d="M131.3,174.1c0.3-0.9,0-2.4-0.3-3.2L131.3,174.1z" fill="#FFFFFF"></path>
		<rect height="2.9" width="0.3" fill="#FFFFFF" y="173.8" x="96.2"></rect>
		<path d="M170.6,77.8L170.6,77.8L170.6,77.8z" fill="#FFFFFF"></path>
		<path d="M186,162c-0.5-1.1,0.1-2.7-1.2-3.2c-4.4-0.3-8.3,0.6-12.7,0.3c-0.3-1.4-1-3.6-0.7-5.2
			c2.6-2.9,0.2-6.7-0.8-9.6c2.1-4.2,0.5-9.2-1.9-12.7c0.7-4.9-2.6-10.2,1-14.2c0.9-5.4,4.4-9.6,8.1-13.9c4.4-5.5-0.7-12-2.1-17.5
			c-0.5-1.6,0.9-3,0.5-4.8c-1.7-1.4-1.7-3.4-3.2-4.8c-1.3-3.9-3.4-7.3-5.5-10.8c0-4.3-1.3-8.7-4.3-12c-2.4-4.1-5.5-7.9-7.9-12
			c-3-3.1-7-4.4-10.8-5.8c-3.7-3.9-9.5-4.9-11.8-10.3c-0.3-6-5-11.8-10.8-13.4c-1.4-0.8-2.3-2.6-3.8-3.2
			c-6.4,1.2-13.1,5.6-14.4,12.5c-0.1,2.4-2.8,0.6-3.6,2.2c-0.4,4.8-4.2,8.6-3.6,13.9c0.1,2.2,1.8,3.8,3.6,5c2.3,0.4,3,3.6,6.5,2.2
			c2,1.5,2.6,1.4,5.9,3c0.5,0.8,0.8,1.3,0.8,1.5c0.5,3.2,1.8,1.1,3.9,1.7c0.5,0.1,1.2,0.9,1.8,1.4c0.5,0.2,1.4,0.1,1.8,0.3
			c2.2,1.1,1.8,2.1,3.4,2.2c3.8,0,4.5-4.3,7.4-6.5c1-0.5,2.3-0.2,2.7,1c-0.1,0.3,0.1,0.7-0.3,0.9c-1.4,5.1,3.3,8.8,1.7,13.7
			c2.5,3.5,1.3,8,1.9,12c1.8,2.8-1.8,7.7,2.2,9.6c-1.6,5.2-5.2,9.5-7,14.6c-2,7.4-13.1,4.8-12.7,13.2l-3.8,2.9l-37.7,27.6
			c-5.7,4.3-12.1,7.9-16.8,13.7c-3.2,2.8-8.1-1.7-11.1,1.8c-5.2,0.3-8.7-0.8-11,0.3c-1.6,3.2-2.4,10.1-1.8,15.2c0,0,0.2,0.8,3.2,1.6
			c18.2,6.1,38.8,6.6,58.8,8.2c1.6-0.3,5.5-0.1,7.2,0.2c23.2-0.5,44.2-1,66.3-5.6c4.6-1.3,9.6-1.9,13.4-4.6
			C186.8,170.6,186.6,165.9,186,162z M170.2,142.4c-0.9,0.7-0.1,2.2-1.2,2.9l-2.2,1.4c2.3-4.9-0.3-6.2-0.5-9.8
			C169.9,137.3,169.7,141.6,170.2,142.4z M170.2,153.2c-0.8,0.4-1.9-0.1-2.2-1c-0.4-1.1-1.3-2.7-0.2-3.8
			C169.2,149.5,170.5,150.8,170.2,153.2z M169.8,109.3c0,1.7-1.1,5-2,7.8l-0.9,1.4c-0.4-3.9,3.7-10.3,0.3-14.8
			c-0.1-1.6,2.2-0.1,2.2,0.4c0.1,3.5,3.6,1.7,3.6,2.2C173.2,107.7,169.8,107.6,169.8,109.3z M169.4,73.3c0.9-0.2,0.9,1.5,1.5,1.9
			c0,0,0,0,0.1,0c-0.2,0-1.1,0.1-1.1,0.7c0.3,0.7,0.7,1.7,0.7,1.9l1.1,1.1l1.6,1.1c0.9,0.5,2.1,1.8,1,3.8l-0.6,1.5
			c1.6,2.6,2.7,6.5,3.9,9.3c0.8,3,0.8,6.9-1.7,9.1c-1.1,0.6-3-1.3-2.9,0.8c-1.8-2.3,1.4-3.6,1-5.8c-0.9-1.4,0.6-5.1-0.7-6.4
			c-0.8,3.9-2.2,8.6-8,9.6c0.4,2,0.6,4.6-0.5,7.1c-5.5,5.5-5.9,8.8-5.4,10.5l0.9,0.9c-1.6-4,3.4-6.1,3.4-6.1c0.8,1,2.1,1.6,0.7,7.2
			c0.5,0.9,0.8,2.1,1.7,2.6c-0.9,2.6,0.8,4.9,0,7.5c-0.8,2.7-1.2,2.4-1.9,4.3c0.3-2-1.7-5.8-1.7-5.8c0-1.9-1-3.9-1.9-5.7
			c-0.7,0.2-2-4-2.2-4.6c-1.2,0.4-2.8,5.3-1.7,6.5L155,128c0,1.1,0.2,2.1,0.4,3c0.2,0.8,0.1,1.1,0.3,1.9c0.1,0.3,0.5,1.6,1.2,2.1
			c1.3-0.3,0.9-0.2,3.5-3.6c0.2,0.2-0.2,2.5-1.1,4.1c-0.5,0.8-1.6,1.4-1.7,1.6c-0.5,0.2-2.4-0.6-2.7-0.8c-1.1-0.7-0.1-1.9-0.9-2.8
			c-0.3,0.1-1.8-7.1-5-7.1c-0.2,0.3-0.7,0.5-0.7,1c0.3,0.6,1.4,0,2.1,1c0.5,1.4,1.7,3,1.2,4.4c-1.1,1-2.8-2.9-3.5-4
			c-1.5,1.6,1.2,4.4,0.2,6.1c-2.7-1.5-2.9-4.9-4.1-7.4c-1.4-4,2.9-6.1,3.2-9.6c2.7-1.7,2.5-5,4.3-7.2c-0.7-0.9-0.7-2.8,0.6-3.2
			c0.3,0,0.8-0.1,1-0.1l1.3-0.3c0.7-2.8,2-6.4,4-9.2c1.1-2.7-2-4.3-1.9-6.9c0.1-0.3,0.5-0.3,0.7-0.3c0.2,0.8-0.4,1.8,0.5,2.2
			c2.7-1.2-1.6-3.5,1.2-5c-0.3-1.8,1-2.9,1.2-4.4c1.5,1.5-0.1,6.4,3.1,5.6c0.8-0.6,0.6-1.5,1-2.2c-1.1-2-1.7-4.8-2.2-6.9
			c0.3-0.5,0.1-0.8,0.8-1.3c1.6-0.3,0.8,0.8,2.4,2.5c0,0,0.7-1.7,0-5.3C167,73.6,169.2,77.6,169.4,73.3z M149.6,154l-5.2,1
			c0.3-0.4,3.2-2,7.8-5C153.1,152,150.3,153.8,149.6,154z M152.6,161.1c0.6,0.7,0,1.6-0.4,2.2c-4.4,0.6-8.1,0.8-12.8,0.7
			c-0.6-0.3-0.9-1.5-0.4-2.2c2.5-0.6,5.2-0.6,7.9-0.9C148.9,161.3,151,158.9,152.6,161.1z M133.4,29.8c2.2,2.3,4.7,3.8,7.2,5.3
			c-0.4,0.8-1.5,1-2.4,1.2c-3-0.5-2.9-3.9-5.8-4.6c-0.2,1.2-1.8,1.9-3.4,0.2c-1.4-1.3-3-0.2-4.8-0.9
			C127.4,31.3,130.6,30.6,133.4,29.8z M119,11.6v0.7c-0.8-0.2-1.9-0.4-2.4-1.2C117.3,10.1,118.5,10.7,119,11.6z M111.6,13.7
			c3,0.8,5.9-1,9-0.6c0.9,1.7,2.5,0.7,3.7,1.8c1.4,1.1,3.1,1.8,4.5,3.8c2,2.1,2.5,6,2.8,7c-1.4,2.1-3.5,0-5.3,1.2
			c-0.7-0.6-0.1-1.8-0.2-2.6c-0.2-1.2,1.1-2,1.7-2.6c-0.6-0.6-1.5-1.1-2.2-0.5v-0.7c-0.8-0.9-1.3,0.6-2.1,0.4
			c-0.8,1.8,0.3,4,0.9,5.8c-4.5-0.2-8.4,1.7-12.7-0.7c-0.5-0.3-1.3-0.3-1.4-1c-1.4-3-0.6-5.9,2.9-9.5c-1.4-0.6-3.4,1.4-4.6,2
			c-1.8,1-1.8,3-2.9,4.1C105.8,18.6,109,15.5,111.6,13.7z M104.4,23.1c1.3-1.3,2.4,1.4,3.4,1.9c6,7.3,19.6,1.3,24.2,3l0.3,1.1
			c-2.6-0.1-5.5,1.6-7.7,0.7h-1.2c-0.5,0.3-12.2,2.4-16.1-1.9C106,26.4,103.9,25.3,104.4,23.1z M105.4,41.8c0.3,0.4,1.3-0.3,1.6-0.5
			c-0.3,0.7-0.9,2-1.6,2.5c-1.4,0.3-1-1.1-1.9-1.6V41c-1.3-0.8-2.6,0.5-3.8-0.3c-2.9-1.8-2.2-5.5-1.2-8.1s1.8-4.1,2-5.1
			c0.6,1.3,0.8,1.7,1.3,2.4c1.5,2.7,5.3,3.3,4.6,6.5c0.4,0.2,0.6-0.2,0.9-0.5c1-1.2,1.1-1,2-1.6c2.9-1,9,1.3,8.8,2.1
			c-2.3,1.5-3.6-1.9-5.7-0.7c-1.9,0.7-3.9,3.6-6.3,2.1c-1.3-0.8-0.9-3.9-3.1-2.8c-1.8,0.2-3.7,1-4.3,2.6
			C100.3,40.5,105.2,38.3,105.4,41.8z M126.5,45.7c-1.4,2.1,0.1,4.9-0.6,7l-0.9,1c-1.3,0.1-1.8-0.2-2.2-0.9c0-3.2-3.6-2.6-4.5-5.6
			c-0.7-1.2,0-2.9-1.4-3.2c-0.8,0.9,0.6,2.4-1,2.6c0.2-0.8-0.8-2.2-1.1-2.4c-0.6-0.2-0.4-1.4-0.6-2.1c-0.9,1-2.6,2.1-2.4,3.8
			c-1.2-0.2-3.2-0.2-3.8-1.9v-0.5c0.7,0.2,1-0.7,1.4-1c-0.4-2.2,1.7-2.1,2.9-3.1c2.1-0.4,2.2,2.7,4.1,1.9c0.5,0.5,1.3,0.6,1.9,0.3
			c0.2-1,1.4-1,1.9-1v-0.2c1.7-0.7,3.4,2.3,5.1,0.2C127.5,41.6,126.1,44,126.5,45.7z M116.3,32.9c-1.1,0.5-9.7,0.1-12.6-2.8
			c-1.3-1.7-3-3-2.7-5.3c2.3,6.5,9,7.1,14.9,7.2c6.4-0.9,14.7,0.9,19.8,4.7C130.1,35,124.5,31.5,116.3,32.9z M136.1,54.1
			c0-1.3,0-2.9,0-3.9c-0.4-0.2-0.7,0.3-1,0.5c-0.1-0.6,0.1-1.7,1-2.2l0.5,0.8C136.4,50.9,137,52.4,136.1,54.1z M139.7,79.3
			c-0.4-1.8,0.6-1.8,1.5-1.8l1.2,0.4c2.4,1.5,6.1,3.4,8.3,2.5l-1.2-0.6c-1.1-0.3-2.3-1.5-3.4-1.8c-0.8-0.3-1.7-0.9-3.1-1.1l-1.1-0.6
			c-1.1-0.5-3.2-0.9-2.9-2.2c0.9-0.9,4-1.1,7.4-0.2c0.4-0.9,0.2-0.9,0.8-1.2c-4.8-0.8-7.2-0.2-7.5-0.6l-0.7-0.4
			c-0.3-2,3.7-2.5,5.8-3.2c1.2-0.4,3.8,0.9,4.4-0.4c0.5-0.9-5.6-1.1-6.5-0.9c-1.5,1.1-4.5,2.3-4.2-0.7c1.1-0.2,4.1-3.2,1.9-4.3
			c-0.9,0.4-1.4,1.6-2.6,1.2c0.4-0.8,1.7-4.8,3.6-4.9c0.3,0.1,4.5-0.5,4.7-0.8c0.8-2.1-5.9,0.4-5.2-2.8l-1.1,0.2
			c-1.8,0.5-1.7,3.5-2.9,4.9v-0.3c0,0-0.5-2,0.2-4.1c1.4-2.6,2.6-2.4,2.6-2.4c-1.9-2.6-1-6.4-2.8-9.1c-0.8-7.1,8-8.1,9.1-6.4
			l-1.7,0.2l-0.4,0.5c2.8,1.1,5.2,3.6,7.6,5.7c1.7,0.8,1.1,3.6,2.7,4.1l0.2-2.1c0.9-2.3-1.8-3-2-5.1c0.9,1.7,3.5,2.8,3.5,5.5
			l-0.5,2.7l1.7-1c0.8,1.6-0.8,4.2,1.5,4.7c-0.6,3,0.9,6.3,1.4,9.2l0.6-3c-0.3,0.5-0.1-4.9-0.1-4.9l-1.1-3.8
			c4.3,5.3,3.6,7.7,2.6,9.2v2.7c0.3-1.4,1.3-1.8,1.9-2.9c1.3-0.1,1,0.6,1.7,1.4c-0.3,3.7,0.1,6.3-1.4,9.6c-1.4-2.7,2.7-5,0.2-7.4
			c-0.7,1.2-1.6,2.7-1.4,4.1c-0.7,1.2-1.8,3.3-1,4.8c0.2,0,0.4-0.2,0.5-0.3c0.3,0.1,0.2,0.5,0.2,0.7c-0.3,0.5-0.8,0.8-1.4,0.8
			c0.1-1.1-0.1-2-0.7-2.7c-1.5,2.1,0.1,5.1-3.1,5.5c0.4-1.3,1-2.8,0.7-4c-0.4-1-2.1-2.1-0.9-3.2c1-0.5,2,0.7,3.3,0.8
			c2-3.5,0.1-4.2,1.6-6.4c-0.8-0.4-1.8,2-2.2,3.8l-1.4,0.4c0.8-3.3-0.6-6.4-2.4-8.6c0,0-4.4-3.2-3.1-5.4c1.2-1.9,0.7-3.2,0.6-3.7
			l-0.8,1.7c-0.7,1.9-1.3,0.9-1.8,2.1l0.2,2.6c-1.7,0.2-0.1-3-1-3.3c-0.6-0.2-0.8,1.6-0.9,2.1c0,1.7-0.2,2.9,0.2,4.1
			c2.4-3.2,4.2,1.4,5.8,2.6c1.7,1.5,0.8,4.3,0.2,6c-2.6,2.7-3.9,2.1-4.1,3.4c2.2-1,4-0.4,4.6,1.2c0.5,1-0.1,3.9-2.5,4.8
			c-0.6,0.1-1.4-0.3-1.7,0.4c0,0.6,0.4,1.1,0.3,1.7c0.4,0,1.9,0,1.9,1c-0.6,0.6-2,0.7-2.5,0.6c0.2,0.2,0.4,0.5,0.6,0.7l1,0.3l1,0.5
			c0.2,0.9-0.6,2.4,0.7,2.7c0,1.2-0.8,2.3-1.4,3.1c-3.2-0.2-7.7-4-7.7-4h-1.6c-1.6,0.2-1.9,0.2-3.6,0.4c-0.2-0.4-0.2-0.9-0.7-1.2
			l-0.2,0.2C137.9,82.3,140,80.8,139.7,79.3z M147.4,101.8h-0.8c0.2-0.4-0.2-0.6-0.4-0.9c-1.1-0.2-0.9,1.3-2,1.4
			c-2.7,1.4-5.5,3.4-8.4,3.6v-0.5c3.2-4.1,6.1-7.5,10.6-10.1c1.8-0.2,1.8,1.4,2.9,2.2c-0.5,1.2,0.1,3.1-1.5,3.6
			C147.9,101.5,147.8,101.9,147.4,101.8z M127.7,107.3c1.7-1.6,3-3.4,5-3.6l-0.5-0.7c1.3-2.6,2.4-5.6,4.6-7.7
			c0.8-1.2,0.6-2.7,1.7-3.8c0.1,0.1,0.2-0.3,0.5-0.7c0.7-2,1.9-4.9,4.5-5.1c1.3-0.4,3.3-0.4,3.9,1c-1.2,1.4,0.3,2.9-1.2,4.1
			l-0.3,1.2c-4.8,4.5-10.2,8-12.9,13.9c-2.3,0-1.5,3-3.2,4.1v0.9c-0.9,0.2-1.5,0.3-2.6,0.3C126.6,109.9,126.7,108.4,127.7,107.3z
			 M134.4,108c-0.1,0.3-1.7,1.2-1.9,1.2l0.5-1.7h0.4C133.4,107.8,134.3,107.8,134.4,108z M123.4,108.3c0.8-0.2,1.4,0.3,2.1,0.5
			c-0.2,1.7-3.1,0.4-3.6,2.4c0.4,0.9-0.6,1.5-0.9,1.9C121.1,111.5,121.3,109.1,123.4,108.3z M118.8,115v0.5l-9.6,6.7
			C111.7,119.8,115.7,117.3,118.8,115z M70.3,150.3c-0.6,1.3-2,2-3.1,2.6C67.8,151.4,69.4,151.4,70.3,150.3z M68.6,153.2l9.6-7
			l21.2-15.3c7.2-5.1,14.5-10,21.6-15.4c2.4-0.9,6,4.2,7.2-1c2.2,1,3.7-1.6,6-1.4c2.5-1.3-0.3-5.6,3.3-5.5c4.4-0.7,7.9-3.7,12.3-4.3
			c-0.3,1.6-0.5,3.3-0.8,5c-3.1,3.4-3,8.2-5.7,11.8c-0.2,2.7-1.9,5.8-0.6,8.4c0.6,2.2,3,4.2,2.5,6.7c-1.5,2-2.1,4.5-2.2,7.2
			c2.5,1.1,0.1,4.2,2.2,5.5c-0.2,2.2-3.2,2.8-3.4,5c-1.5,0.6-1.4,2.2-2.4,3.2c-3-0.2-5.5,1-8.1,1.9c-1.2,0.7-1.2,1.5-2.2,2.1
			l-14.3,0.3l-28.2,0.1c-7.5-0.9-14.4-0.3-22.5-0.5C64.1,157.5,66.8,155.4,68.6,153.2z M137.5,166.1l-0.2,1.2c-0.4,0-0.2-1.6-1-0.7
			C135.8,165.7,137.3,165.2,137.5,166.1z M129.4,161.3c-2.4,3.2-14.1,5.6-19.8,4.3C117.3,164.6,124.3,162.3,129.4,161.3z
			 M58.8,160.1c1.3-0.3,1.9-1.9,3.6-1.9c-0.4,1.8-3.1,1.2-2.4,3.4c-0.7,0.8-1.4,1.3-2.4,1.4C57.4,162.1,58,160.9,58.8,160.1z
			 M51.3,161.4c1.4,1.5,3.6,1.9,5.3,2.3c2.7,0.6,5.3,0.1,6.8-2.2c10,0.2,16.9-0.2,29.2,3.4c0.3,0.3,0.7,0.6,0.5,1
			c-2.5,1.4-6,0.3-8.9,1l-1.2-0.5c-7.3,0.5-14.5-0.8-21.6-1.7c-4-0.2-8.2-1.2-12-2.9C50,160.8,50.3,161.1,51.3,161.4z M99.6,182.7
			c-0.3-3.4,0.3-6-0.2-9.6c-1,2.3-0.2,5.3-0.8,7.7c-0.6,0.4,0.3,1.6-0.7,1.7c0.3-2.9,0.4-6,0-9.2c-0.9,1.7-0.1,4.2-0.7,6l-0.7,3.2
			c-1.1-0.5,0.5-4.4-0.7-5.2c-0.6,0.8,0.2,4.5-0.8,5.2c-0.7-3,0.5-9.5-0.3-12.6l-0.5,0.4l-0.4,11.9c-13.9-1.1-28.5-1.5-41.8-4.8
			c-1.8-0.5-4.7-1.4-5.7-3.6c-0.3-0.2-1.5-1.2-1.8-1.4c-0.1-0.1-0.2,1.1-0.3,1s0.1-2.7-0.1-2.8c-0.3-0.1,0,0-0.2-0.1
			c-0.1-0.1-0.3,1.8-0.3,1.8c-0.3-0.3,0-2.5-0.2-2.8c-0.2-0.4-0.4,0.8-0.4,0.3l-0.3,2.3c-0.4,0.4,0.1-5.9-0.5-5.5
			c-0.6-0.6-0.4,4.3-0.6,5.3c-0.3-0.1,0-5-0.1-5.3c-0.1-0.2-0.5-0.7-0.7,0.5c-0.1,0.8-0.1,2.6-0.2,2.6c-0.1-0.2-0.1-1.9-0.3-1.9
			s-0.4,1.8-0.5,1.7c-0.2-0.8,0.2-6.7,1.2-7.6c11.2,3.9,23.3,6.1,35.4,6.4l10.4,0.2c1.1,1.8,2.9-0.2,3.3,1.1
			c0.6-0.3,2.8-0.4,1.9,2.4c1.3,0.5,0,2.3,1.5,2.6c0.5-2.1-0.1-5.1,0.4-6.9l1,0.9l0.7-0.7l0.7,3.9l0.5-3.9c0.7,0.6,1.2-0.2,1.9-0.2
			c0.6,1.1-0.2,2.9,0.8,3.8c1.2-0.9-1.6-5,1.4-3.6C100.4,172.8,101.8,178.4,99.6,182.7z M103.7,180.1l-0.7,2.1
			c-0.9-0.7,1.1-9.4-0.2-10.2l-1.3,10.5c-0.3-4.7,0.6-10.5,0.3-15.2c1.3-0.1,0.3,1.6,0.9,2.2c0.6-0.6,0-1.6,0.5-2.2h0.5
			c0.5,1.2-0.1,2.9,0.5,4.1l0.4-3.8c0.2,4.8,0.8,9.9-0.4,14.1C104.3,182.5,103.9,180.6,103.7,180.1z M109,182.5
			c-0.8-0.8-0.4-2-0.2-3.2v1.1h0.2v-0.3V182.5z M108.8,172.4c-0.5-0.4-0.2-4.1-0.9-4.3c-0.2,4.8,0.4,9.7-0.5,14.6
			c-0.4,0.2-0.6-0.2-0.9-0.5c1.1-2.7,0.9-7.2,0.2-9.6c-0.8,3.1-0.4,6.7-1.2,9.9h-0.2c0.1-4.8,0.6-10.5,0.4-15.2
			c1.4,0.3,0.2,3.6,0.9,4.4c0.8-0.9-0.7-4.1,1.1-4.4c0,1.3,0.7-0.4,1.2,0.5L108.8,172.4z M119.5,171.2l-0.5,0.5
			c-0.2,3.2,0.6,7.5-0.7,10.5c-2.4,1.1-5.2,0-7.9,0.3l-0.5-2c0.6-4.3,0.1-8.7-0.5-12.9c1.5-1,3.7-0.1,5.3-0.7c1.6-0.2,3,0.1,4.3,0.7
			c-0.3,0.9-0.5,2.5,0.3,3.3l0.5-0.4l0.1,2.3C119.8,172.3,119.6,171.6,119.5,171.2z M132.7,177.9l-0.7,0.7c0.1-1.5-0.1-2.9-0.7-4.1
			c-0.8,2.6,0.5,4.2-0.3,6.8h-0.4c0.4-4.2-0.7-8.4-1-12.5c-1,4-0.2,8.1,0.2,12.5c-0.3,0.2-0.5,0.6-0.9,0.4c-0.6-1.5-1-3.3-0.5-5
			c-0.2-2.6,0.4-6.2-0.5-8.9c-0.1,1.6-0.3-0.4-0.4,1.3l-0.1,10.5c0.1,0.7,0.9,1.4,0.3,2.1c-1.7,0.5-2.5,0.7-4.6,0.5
			c-0.9,0,0.4-12.6-0.2-12.9c-0.9,0.2-0.6,13-1.7,12.7c-0.4-0.4,0.9-10.1,0-13c-0.4,0.3-0.2,2.8-0.5,2.5c0,0-1-4.2,0.3-3.9
			c0.3-1.4,1.8-0.4,2.4-0.5l0.2,0.2l0.5-0.9c0.6-0.4,1.2,1.2,1.4,0c0.7-0.3,0.7,0.5,1,0.7c0.3-0.2,0.3-1,0.9-0.7
			c0.1,0.4-0.1,0.9,0.3,1.2c0.9,0,0.1-1.1,0.7-1.5c1.4,0.2,2.1,0.8,3.4,0.5c1,3.3-0.1,7.8,0.9,10.8l0.7-0.7c0.5,0.7,0.2,3.5,0.3,4.8
			C131.6,181.1,133.7,179.1,132.7,177.9z M135.1,168.8l-0.2-2.7l0.5,0.5L135.1,168.8z M163.9,175.7l-0.2,2.4c-0.1-0.4,0-1.5-0.7-2.1
			c-0.5,1.2-1.6,1.3-1.5,2.9c-0.7,0.4-0.8-1.2-1.4-0.3c-1.2-1.1-2.1,1-3.4,1c-3.8,0.1-7.8,2-11-0.7c-2.1,0.9-2.5-2.3-4.3-2
			c-0.3-1-0.7-1.8-1.8-2.1c-1.2,0.5-0.4,2-0.6,2.9c0,0,0.4,2.8-0.5,3.1c-0.6-3.9-0.8-8-1.7-11.8c-0.7,0.3-0.5-0.4-0.7-0.7v-0.5
			c0.5,0.6,0.8,1.5,1.9,1.5c0.6-0.9,0.6-2.3,2.2-2c1.9-4,6.6-1.6,9.8-2.6c2.1-0.1,5.1-0.9,7.2-0.2l2.4,0.4l0.2-0.7
			c0.7,0.6-0.4,3.8,1,3.9l0.5-4.4c1.2,1.2,0.3,6.8,1.5,6.8c0.1-0.5,0.3-4.3,0.1-4.8l0.3-0.3C164,167.6,164.3,174.4,163.9,175.7z
			 M154.8,160.4c0.6-1.5,2.4-0.1,3.1-1.2c1.9-0.3,3.4,0.6,4.6,2.1c-0.1,2-2.7,1.2-4.1,1.7c-1.3-0.2-2.5-0.4-3.4-1.7
			C155,161,155.2,160.6,154.8,160.4z M150.3,141.3l-2.8-4.8c4,0.9,13.2,3.5,17.1,1.6c-1,1.7-1.5,2-3.2,2.8l5.2,1.3
			C163.9,142.3,152.3,144.4,150.3,141.3z M168.7,161.1l-1.9-0.2c0.2-1.2-0.6-4.1,0.7-4.4c0.9,0.6,1.9,0.8,2.7,1.7
			C170.9,159.6,170,160.7,168.7,161.1z M183.8,172.7c-1,0.3-0.5-0.9-0.9-1.2c0-2.4,0.1-8.4-0.5-10.8c2.3-2.2,2.1,1.8,2.4,3.2
			C184.8,165.4,185.9,171.6,183.8,172.7z" fill="#FFFFFF"></path>
		<path d="M145.5,87.7c-0.1-0.4-0.7-0.4-0.9-0.4c-1.3,0.6-1.9,1-1.4,2.6C144.2,89.1,144,87.1,145.5,87.7z" fill="#FFFFFF"></path>
		<path d="M153.4,86.9c0.7-0.4,0.7-1.1,0.7-1.9c-1.9,1.3-0.9-0.9-1-1.2l-0.8,0.8c-0.2,0.3-0.4,0.8-2.1,0.7
			C150.8,86,152.4,87.1,153.4,86.9z" fill="#FFFFFF"></path>
		<path d="M155.3,64.6c0.7-2.8-3-3.3-3.9-5.5l-0.5,0.5c0.4,1.8,4,3.4,1.1,3.8c-2.4,2-2.5-0.9-4.9,1.3l3.4,0.8
			C153.6,62.5,154.1,66.6,155.3,64.6z" fill="#FFFFFF"></path>
		<path d="M147.6,61.3c-1.3,0.4-3.2-1.1-3.8,0.9C145.1,62.1,146.8,62.6,147.6,61.3z" fill="#FFFFFF"></path>
		<path d="M125.6,180.5c0.2,0.2,0.6-0.2,0.4-0.4l0.1-6.3v-2.3c0,0-0.1-2.8-0.6-3.3
			C125.1,170.1,125.4,178.9,125.6,180.5z" fill="#FFFFFF"></path>
	</g>
	<g>
		<path d="M196.1,173.7c-0.6,0.6-1.4,0.9-2.3,0.9c-0.9,0-1.7-0.3-2.3-0.9c-0.6-0.6-0.9-1.4-0.9-2.3
			c0-0.9,0.3-1.7,1-2.4c0.6-0.6,1.4-0.9,2.2-0.9c0.9,0,1.7,0.3,2.3,1c0.6,0.6,0.9,1.4,0.9,2.3C197.1,172.3,196.8,173.1,196.1,173.7z
			 M192,169.6c-0.5,0.5-0.8,1.1-0.8,1.9c0,0.7,0.3,1.4,0.8,1.9s1.1,0.8,1.9,0.8c0.7,0,1.4-0.3,1.9-0.8s0.8-1.2,0.8-1.9
			s-0.3-1.3-0.8-1.9c-0.5-0.5-1.2-0.8-1.9-0.8C193.1,168.8,192.5,169,192,169.6z M192.4,173.2v-3.6c0.2,0,0.6,0,1,0s0.7,0,0.7,0
			c0.3,0,0.5,0.1,0.7,0.2c0.3,0.2,0.5,0.5,0.5,0.9c0,0.3-0.1,0.5-0.3,0.7c-0.2,0.1-0.4,0.2-0.6,0.2c0.2,0,0.4,0.1,0.5,0.2
			c0.2,0.2,0.3,0.4,0.3,0.8v0.3v0.1v0.1v0.1h-0.9c0-0.1,0-0.3-0.1-0.5c0-0.2,0-0.4-0.1-0.4c0-0.1-0.1-0.2-0.3-0.3
			c-0.1,0-0.2,0-0.3-0.1h-0.2h-0.2v1.3H192.4z M194.1,170.3c-0.1,0-0.3-0.1-0.6-0.1h-0.2v1h0.4c0.2,0,0.4,0,0.5-0.1s0.2-0.2,0.2-0.4
			S194.3,170.4,194.1,170.3z" fill="#FFFFFF"></path>
	</g>
</g>
</svg>
